<?xml version="1.0" encoding="UTF-8"?>
<!DOCTYPE svg PUBLIC "-//W3C//DTD SVG 1.1//EN" "http://www.w3.org/Graphics/SVG/1.1/DTD/svg11.dtd">
<svg xmlns="http://www.w3.org/2000/svg" version="1.1" width="120px" height="120px" style="shape-rendering:geometricPrecision; text-rendering:geometricPrecision; image-rendering:optimizeQuality; fill-rule:evenodd; clip-rule:evenodd" xmlns:xlink="http://www.w3.org/1999/xlink">
<g><path style="opacity:0.958" fill="#41e0d8" d="M 93.5,58.5 C 83.9233,54.7119 74.59,50.3786 65.5,45.5C 63.9707,45.5288 62.804,46.1955 62,47.5C 61.1519,49.8743 59.8186,51.8743 58,53.5C 53.0483,48.8694 49.215,49.5361 46.5,55.5C 46.1667,55.5 45.8333,55.5 45.5,55.5C 44.2862,52.0698 42.7862,48.7365 41,45.5C 39.5557,43.8446 37.7224,43.178 35.5,43.5C 42.3754,29.9468 49.7088,16.6135 57.5,3.5C 58.723,2.38615 60.0563,2.21948 61.5,3C 72.3048,21.4458 82.9714,39.9458 93.5,58.5 Z"/></g>
<g><path style="opacity:0.953" fill="#7ae9e4" d="M 35.5,43.5 C 37.7224,43.178 39.5557,43.8446 41,45.5C 42.7862,48.7365 44.2862,52.0698 45.5,55.5C 39.0654,64.7163 32.3987,73.7163 25.5,82.5C 20.8935,80.1039 18.7269,76.4373 19,71.5C 24.2743,61.9389 29.7743,52.6055 35.5,43.5 Z"/></g>
<g><path style="opacity:0.982" fill="#7ae8e3" d="M 93.5,58.5 C 96.5378,63.3641 98.8711,68.5307 100.5,74C 100.253,77.4189 98.5866,79.9189 95.5,81.5C 83.0958,72.875 70.9291,63.875 59,54.5C 56.4123,58.674 54.079,63.0074 52,67.5C 49.8977,63.6284 48.0644,59.6284 46.5,55.5C 49.215,49.5361 53.0483,48.8694 58,53.5C 59.8186,51.8743 61.1519,49.8743 62,47.5C 62.804,46.1955 63.9707,45.5288 65.5,45.5C 74.59,50.3786 83.9233,54.7119 93.5,58.5 Z"/></g>
<g><path style="opacity:0.979" fill="#a1efeb" d="M 95.5,81.5 C 87.5,90.1667 79.1667,98.5 70.5,106.5C 64.1081,94.0472 57.9414,81.3806 52,68.5C 46.7878,77.1927 42.2878,86.1927 38.5,95.5C 33.8333,91.5 29.5,87.1667 25.5,82.5C 32.3987,73.7163 39.0654,64.7163 45.5,55.5C 45.8333,55.5 46.1667,55.5 46.5,55.5C 48.0644,59.6284 49.8977,63.6284 52,67.5C 54.079,63.0074 56.4123,58.674 59,54.5C 70.9291,63.875 83.0958,72.875 95.5,81.5 Z"/></g>
<g><path style="opacity:0.977" fill="#bdf4f1" d="M 70.5,106.5 C 68.0381,109.464 65.3714,112.297 62.5,115C 60.8333,115.667 59.1667,115.667 57.5,115C 50.964,108.631 44.6306,102.131 38.5,95.5C 42.2878,86.1927 46.7878,77.1927 52,68.5C 57.9414,81.3806 64.1081,94.0472 70.5,106.5 Z"/></g>
</svg>
